# xmcd CD database file
#
# Track frame offsets:
#	150
#	15549
#	31554
#	54886
#	81629
#	98859
#	117822
#	132266
#	161609
#	174764
#
# Disc length: 2836 seconds
#
# Revision: 0
# Processed by: cddbd v1.5.1PL0 Copyright (c) Steve Scherf et al.
# Submitted via: CDex 1.51
#
DISCID=6c0b120a
DTITLE=Rooster Alley - Cock of the Walk
DYEAR=1900
DGENRE=Blues
TTITLE0=Temperature Rising
TTITLE1=I'm Doomed
TTITLE2=Recovery
TTITLE3=tell Me Woman
TTITLE4=Platinum Blonde Blues
TTITLE5=Hallways To Hell
TTITLE6=Silver Dollar Stomp
TTITLE7=Got To Have My Money
TTITLE8=My Hoochie Coohice Mama
TTITLE9=Rockin My Bonnie
EXTD=
EXTT0=
EXTT1=
EXTT2=
EXTT3=
EXTT4=
EXTT5=
EXTT6=
EXTT7=
EXTT8=
EXTT9=
PLAYORDER=
